<svg width="21" height="20" viewBox="0 0 21 20" fill="none" xmlns="http://www.w3.org/2000/svg">
<g clip-path="url(#clip0_3_10)">
<path fill-rule="evenodd" clip-rule="evenodd" d="M20.308 7.725L18.2823 17.7875C18.0072 19.0625 16.9068 19.975 15.6063 20.0125H5.12758C3.82712 19.9875 2.71423 19.0625 2.45163 17.7875L0.425913 7.725C0.275859 7.0625 0.425913 6.3625 0.863568 5.825C1.28872 5.2875 1.93895 4.9875 2.61419 5H5.37767C5.37767 2.2375 7.61597 0 10.3669 0C13.1304 0 15.3687 2.2375 15.3687 5H18.1197C18.8074 4.9875 19.4577 5.2875 19.8828 5.825C20.308 6.35 20.4705 7.0625 20.308 7.725ZM4.85249 17.275C4.9025 17.4 5.00254 17.475 5.12758 17.5H15.6063C15.7314 17.475 15.8314 17.4 15.8814 17.275L16.3441 15H4.40233L4.85249 17.275ZM10.3669 2.5C8.99146 2.5 7.86606 3.625 7.86606 5H12.8678C12.8678 3.625 11.7549 2.5 10.3669 2.5ZM2.88929 7.5L3.88964 12.5H16.8442L17.8696 7.4875L2.88929 7.5Z" fill="#040200"/>
</g>
<defs>
<clipPath id="clip0_3_10">
<rect width="20.0071" height="20" fill="white" transform="translate(0.363403)"/>
</clipPath>
</defs>
</svg>
