<svg width="167" height="25" viewBox="0 0 167 25" fill="none" xmlns="http://www.w3.org/2000/svg">
<path d="M16.726 12.6409C16.726 12.771 16.726 12.9228 16.7044 13.0529C16.6827 13.183 16.6827 13.3131 16.6827 13.4432C16.5962 14.1587 16.4231 14.8526 16.1634 15.503C15.8822 16.1752 15.5576 16.7823 15.1465 17.3461C14.7354 17.9098 14.2594 18.4302 13.7185 18.8855C13.1775 19.3625 12.5717 19.7528 11.9442 20.0564C10.6027 20.6852 9.19632 20.9454 7.72501 20.8369C6.25369 20.7285 4.89056 20.2732 3.67888 19.4276C2.48885 18.647 1.58009 17.6062 0.930984 16.327C0.281874 15.0477 -0.0210442 13.7034 0.000592769 12.2723C0.0438668 11.3833 0.195326 10.5377 0.498244 9.69211C0.801162 8.86817 1.21227 8.0876 1.75319 7.37207C2.42394 6.50477 3.24614 5.78925 4.21981 5.24718C5.19348 4.70512 6.21042 4.3582 7.3139 4.2281C8.39575 4.09801 9.4776 4.16305 10.5595 4.46661C11.6413 4.77016 12.5933 5.24718 13.4588 5.91934H13.4805V1.60451C13.4805 1.14918 13.6319 0.780572 13.9565 0.455334C14.2594 0.151778 14.6489 0 15.1032 0C15.5576 0 15.9471 0.151778 16.25 0.477016C16.5745 0.780572 16.726 1.17086 16.726 1.62619V12.294V12.6409ZM12.2255 15.8933C12.8313 15.1778 13.2208 14.3755 13.3939 13.4649C13.567 12.5542 13.5237 11.6652 13.1992 10.7762C12.9612 10.1041 12.5933 9.49696 12.0957 8.97658C11.6197 8.4562 11.0355 8.06592 10.408 7.78404C9.75889 7.48049 9.0665 7.35039 8.35248 7.35039C7.63846 7.35039 6.96771 7.50217 6.3186 7.78404C6.03732 7.91414 5.77768 8.06592 5.51803 8.21769C5.25839 8.36947 5.02038 8.56461 4.80401 8.75976C4.34963 9.21509 4.00344 9.73547 3.72216 10.2992C3.44088 10.9063 3.28942 11.5134 3.24614 12.1856C3.22451 12.7493 3.26778 13.3131 3.41924 13.8768C3.5707 14.4406 3.80871 14.961 4.1549 15.4163C4.50109 15.9367 4.91219 16.3703 5.40985 16.7173C5.9075 17.0642 6.42679 17.3244 7.01099 17.4762C7.57355 17.6062 8.13611 17.6713 8.72031 17.6279C9.30451 17.5846 9.86707 17.4545 10.408 17.216C10.2565 17.3027 10.1267 17.3677 9.99689 17.4111C9.86707 17.4761 9.71561 17.5195 9.56415 17.5846C9.88871 17.4545 10.2349 17.3244 10.5811 17.1726C11.2086 16.8474 11.7711 16.4137 12.2255 15.8933Z" fill="#040200"/>
<path d="M35.6912 12.5109C35.6696 12.9662 35.4965 13.3348 35.1936 13.66C34.869 13.9636 34.4796 14.1371 34.0468 14.1587H22.4927C22.5576 14.3756 22.6658 14.5924 22.7739 14.8092C22.8605 14.9827 22.947 15.1561 23.0336 15.3079C23.1201 15.4597 23.2067 15.6115 23.2932 15.7849C23.2067 15.6548 23.1201 15.5031 23.0552 15.373C22.9903 15.2429 22.9254 15.1128 22.8389 14.961C23.1201 15.4597 23.4663 15.915 23.8991 16.3053C24.3318 16.6956 24.8078 17.0208 25.3488 17.2377C25.9113 17.4762 26.5604 17.628 27.2528 17.6496H27.361C27.8154 17.6496 28.1832 17.8014 28.4861 18.105C28.789 18.4085 28.9405 18.7771 28.9405 19.2325C28.9405 19.6878 28.789 20.0564 28.4861 20.3816C28.1832 20.6852 27.8154 20.8587 27.361 20.8587C27.2528 20.8587 27.1663 20.8587 27.0581 20.8587C26.9499 20.8587 26.8633 20.8587 26.7768 20.837C26.0411 20.7936 25.3488 20.6418 24.6564 20.4033C23.964 20.1648 23.3149 19.8396 22.7307 19.4493C22.1248 19.059 21.5839 18.6037 21.1079 18.0616C20.6102 17.5195 20.1991 16.9124 19.8746 16.262C19.2255 14.961 18.9442 13.595 19.0091 12.1423C19.0524 10.6895 19.4635 9.34521 20.2424 8.10931C20.3073 8.00089 20.3939 7.89248 20.4588 7.78407C20.5453 7.67565 20.6102 7.56724 20.6968 7.45883C21.3459 6.59153 22.1248 5.876 23.0336 5.33394C23.9423 4.79187 24.9376 4.42327 25.9762 4.22813C27.3177 4.0113 28.6159 4.11971 29.9142 4.53168C31.2124 4.94365 32.3375 5.63749 33.2679 6.61321C34.0252 7.39378 34.631 8.28277 35.0421 9.25848C35.4749 10.2559 35.6696 11.2966 35.6696 12.3808V12.4241V12.5109H35.6912ZM24.5915 8.15267C24.0938 8.47791 23.6611 8.88988 23.2932 9.3669C22.9254 9.84391 22.6441 10.3643 22.471 10.9064H32.2293C32.1428 10.6462 32.013 10.3643 31.8615 10.0824C31.5369 9.45363 31.0826 8.93324 30.52 8.47791C29.9574 8.04426 29.33 7.71902 28.6376 7.52388C27.9668 7.32873 27.2744 7.28537 26.5604 7.39378C25.8464 7.52388 25.1973 7.76239 24.5915 8.15267Z" fill="#040200"/>
<path d="M57.6097 4.00232C58.0641 4.00232 58.4535 4.15409 58.7564 4.47933C59.0594 4.80457 59.2325 5.19486 59.2325 5.62851V11.5695V11.9815V19.1368V19.1584V19.2668V19.3536V19.4403C59.2108 19.462 59.2108 19.4837 59.2108 19.527C59.2108 19.5487 59.2108 19.5487 59.1892 19.5704C59.1892 19.5704 59.1675 19.5921 59.1675 19.6138C59.1675 19.6354 59.1675 19.6571 59.1459 19.6571C59.1459 19.7005 59.1459 19.7439 59.1243 19.7655C59.1243 19.7872 59.1243 19.8089 59.1026 19.8089C59.1026 19.8523 59.081 19.874 59.0594 19.9173V19.939C59.0377 19.9607 59.0377 19.9824 59.0161 19.9824C58.9945 19.9824 58.9945 20.0257 58.9728 20.0257V20.0474C58.9512 20.0691 58.9512 20.0908 58.9295 20.0908C58.9295 20.1125 58.9079 20.1341 58.8646 20.1341V20.1558L58.7564 20.2642L58.7132 20.3076L58.6699 20.351C58.6266 20.3727 58.5833 20.3943 58.5401 20.4594C58.4968 20.4811 58.4752 20.4811 58.4752 20.5028C58.4752 20.5028 58.4535 20.5244 58.4103 20.5461H58.367C58.3237 20.5895 58.3021 20.5895 58.2588 20.5895C58.2372 20.5895 58.2372 20.5895 58.2372 20.6112C58.1939 20.6112 58.1722 20.6112 58.1722 20.6328C58.1722 20.6328 58.1506 20.6545 58.1073 20.6545L58.0641 20.6979C58.0424 20.6979 58.0424 20.6979 58.0208 20.7196C58.0208 20.7196 57.9992 20.7413 57.9559 20.7413H57.9126C57.891 20.7413 57.891 20.7413 57.8693 20.7629C57.8693 20.7629 57.8477 20.7846 57.8044 20.7846H57.7611H57.653H57.6313H57.6097H57.5015H57.415C57.3933 20.7846 57.3933 20.7846 57.3717 20.7629C57.3717 20.7629 57.35 20.7413 57.3284 20.7413H57.2419C57.2419 20.6979 57.1986 20.6979 57.1769 20.6979C57.1553 20.6979 57.1553 20.6979 57.1337 20.6762C57.1337 20.6762 57.112 20.6545 57.0904 20.6545C57.0688 20.6545 57.0688 20.6545 57.0471 20.6328C57.0255 20.6112 57.0255 20.6112 57.0038 20.6112C56.9822 20.6112 56.9822 20.6112 56.9822 20.5895C56.9822 20.5895 56.9822 20.5678 56.9606 20.5678L56.8524 20.5244L56.8308 20.5028C56.7875 20.5028 56.7658 20.4811 56.7226 20.4594L56.7009 20.4377L56.5927 20.3943C56.5927 20.3727 56.5927 20.3727 56.5711 20.3727C56.5711 20.3727 56.5495 20.3727 56.5495 20.351C56.5278 20.351 56.5062 20.3293 56.4629 20.3076L56.4413 20.2642L56.4196 20.2209L47.2456 9.89997V11.5695V11.9815V19.1368C47.2456 19.5921 47.0941 19.9607 46.7695 20.2859C46.445 20.6112 46.0772 20.7629 45.6228 20.7629C45.1684 20.7629 44.7789 20.6112 44.476 20.2859C44.1731 19.9607 44 19.5921 44 19.1368V11.9815V11.5695V5.62851V5.58514V5.47673L44.0216 5.45505C44.0649 5.06476 44.238 4.71784 44.5409 4.41428C44.8655 4.11073 45.2549 3.98063 45.7093 4.00232C46.1637 4.024 46.5315 4.19746 46.8344 4.54438L56.0085 14.8436V11.9815V11.5695V5.62851C56.0085 5.17317 56.16 4.78289 56.4846 4.47933C56.8091 4.17578 57.1553 4.00232 57.6097 4.00232Z" fill="#040200"/>
<path d="M39.6228 3.27411C39.1684 3.27411 38.8006 3.12234 38.476 2.7971C38.1731 2.47186 38 2.10326 38 1.64792C38 1.19259 38.1515 0.823984 38.476 0.498745C38.7789 0.173506 39.1684 0.0217285 39.6228 0.0217285C40.0772 0.0217285 40.4666 0.173506 40.7695 0.498745C41.0941 0.823984 41.2456 1.19259 41.2456 1.64792C41.2456 2.10326 41.0941 2.47186 40.7695 2.7971C40.445 3.12234 40.0772 3.27411 39.6228 3.27411ZM39.6228 5.22554C40.0772 5.22554 40.4666 5.37732 40.7695 5.70256C41.0941 6.0278 41.2456 6.41809 41.2456 6.85174V13.53V13.7034V13.8552V14.549V19.1458C41.2456 19.6011 41.0941 19.9914 40.7695 20.2949C40.445 20.5985 40.0555 20.7719 39.6228 20.7719C39.19 20.7719 38.8006 20.6202 38.476 20.2949C38.1515 19.9697 38 19.5794 38 19.1458V14.5924V13.8986V13.7468V13.5517V6.87342C38 6.41809 38.1515 6.0278 38.476 5.72424C38.7789 5.39901 39.1684 5.22554 39.6228 5.22554Z" fill="#040200"/>
<path d="M75.0904 5.59409C75.6746 5.98438 76.1939 6.46139 76.6699 6.98178C77.1459 7.50216 77.5137 8.08759 77.8166 8.6947C78.1412 9.32349 78.3792 9.97397 78.5307 10.6461C78.6821 11.3183 78.7687 12.0121 78.747 12.706C78.7038 13.595 78.5523 14.4623 78.2494 15.2862C77.9465 16.1318 77.5354 16.9124 76.9944 17.6062C76.3237 18.4952 75.5015 19.2107 74.5278 19.7528C73.5542 20.2949 72.5372 20.6418 71.4337 20.7719C70.3302 20.902 69.2484 20.8369 68.1665 20.5334C67.1063 20.2298 66.1327 19.7528 65.2455 19.0806V19.1023V23.3955C65.2455 23.8508 65.0941 24.2194 64.7695 24.5447C64.445 24.8699 64.0772 25.0217 63.6228 25.0217C63.1684 25.0217 62.7789 24.8699 62.476 24.5447C62.1515 24.2411 62 23.8508 62 23.3955V12.5542V12.3807C62 12.2506 62 12.0989 62.0216 11.9688C62.0216 11.8387 62.0433 11.7086 62.0649 11.5568C62.1298 10.8413 62.3029 10.1474 62.5626 9.49695C62.8222 8.82479 63.1684 8.21768 63.5795 7.63225C63.9906 7.06851 64.4666 6.54812 65.0075 6.09279C65.5485 5.63746 66.1543 5.24717 66.7818 4.94361C68.1233 4.31482 69.5297 4.05463 71.001 4.18472C72.5156 4.29314 73.8571 4.77015 75.0904 5.59409ZM75.5015 12.8578C75.588 11.6435 75.2851 10.5594 74.5927 9.58368C74.2465 9.08499 73.8354 8.65133 73.3378 8.30441C72.8401 7.95749 72.3208 7.6973 71.7366 7.54552C70.5683 7.22028 69.4215 7.28533 68.3396 7.78403C68.4695 7.71898 68.6209 7.65394 68.7507 7.58889C68.8806 7.52384 69.032 7.48047 69.1618 7.41543C68.9887 7.48047 68.8156 7.54552 68.6642 7.63225C68.5127 7.71898 68.3396 7.78403 68.1882 7.87076C67.5391 8.15263 66.9981 8.5646 66.5221 9.12835C65.9163 9.84387 65.5268 10.6461 65.3321 11.5785C65.1374 12.5108 65.2239 13.3998 65.5268 14.2888C65.7648 14.9393 66.1327 15.5464 66.6087 16.0668C67.0847 16.5872 67.6689 16.9991 68.318 17.281C68.9671 17.5629 69.6595 17.693 70.3735 17.693C71.0875 17.693 71.7583 17.5412 72.429 17.2593C72.7103 17.1292 72.97 16.9774 73.2296 16.8257C73.4892 16.6739 73.7273 16.4787 73.9436 16.2836C74.398 15.8283 74.7658 15.3079 75.0255 14.7441C75.3284 14.1153 75.4798 13.4865 75.5015 12.8578Z" fill="#040200"/>
<path d="M96.081 4.11975C96.5354 4.11975 96.9032 4.27153 97.2278 4.59677C97.5307 4.92201 97.7038 5.31229 97.7038 5.74594V12.5109C97.7038 13.6601 97.4874 14.7442 97.033 15.7416C96.6003 16.7607 95.9945 17.6497 95.2372 18.3869C94.4799 19.1458 93.5927 19.7312 92.5974 20.1865C91.5805 20.6202 90.4986 20.8587 89.3735 20.8587C88.2051 20.8587 87.1233 20.6419 86.1063 20.1865C85.0894 19.7529 84.2023 19.1458 83.4666 18.3869C82.7093 17.628 82.1251 16.739 81.6708 15.7416C81.238 14.7225 81 13.6384 81 12.5109V5.74594C81 5.29061 81.1515 4.90032 81.476 4.59677C81.8006 4.29321 82.19 4.11975 82.6228 4.11975C83.0555 4.11975 83.445 4.27153 83.7695 4.59677C84.0941 4.92201 84.2456 5.31229 84.2456 5.74594V12.4892C84.2456 13.2047 84.3754 13.8552 84.6567 14.484C84.9163 15.0911 85.2841 15.6332 85.7385 16.1102C86.1929 16.5872 86.7338 16.9558 87.3613 17.216C87.9888 17.4762 88.6595 17.628 89.3519 17.628C90.0443 17.628 90.6934 17.4979 91.3209 17.216C91.9483 16.9558 92.4892 16.5872 92.9653 16.1102C93.4413 15.6332 93.8091 15.1128 94.0688 14.484C94.3284 13.8769 94.4799 13.2047 94.4799 12.4892H94.4582V5.74594C94.4582 5.29061 94.6097 4.92201 94.9342 4.59677C95.2588 4.27153 95.6483 4.11975 96.081 4.11975Z" fill="#040200"/>
<path d="M116.249 18.1267C116.552 18.4302 116.725 18.7988 116.725 19.2542C116.725 19.7095 116.574 20.0781 116.249 20.4034C115.925 20.7286 115.557 20.8804 115.103 20.8804H101.623C101.168 20.8804 100.801 20.7286 100.476 20.4034C100.151 20.0781 100 19.7095 100 19.2542C100 18.9289 100.087 18.6037 100.281 18.3218L100.433 18.1701L111.23 7.32877H101.644C101.19 7.32877 100.822 7.17699 100.519 6.87344C100.216 6.56988 100.065 6.20128 100.065 5.74594C100.065 5.29061 100.216 4.92201 100.519 4.59677C100.822 4.29321 101.19 4.11975 101.644 4.11975H115.146C115.6 4.11975 115.968 4.27153 116.271 4.59677C116.574 4.90032 116.725 5.29061 116.725 5.74594C116.725 6.07118 116.639 6.39642 116.444 6.67829C116.401 6.72166 116.379 6.76502 116.336 6.80839C116.293 6.85175 116.249 6.9168 116.184 6.96017L111.424 11.7303V11.687L105.453 17.6714H115.059C115.557 17.6714 115.925 17.8231 116.249 18.1267Z" fill="#040200"/>
<path d="M135.249 18.1267C135.552 18.4302 135.725 18.7988 135.725 19.2542C135.725 19.7095 135.574 20.0781 135.249 20.4034C134.925 20.7286 134.557 20.8804 134.103 20.8804H120.623C120.168 20.8804 119.801 20.7286 119.476 20.4034C119.151 20.0781 119 19.7095 119 19.2542C119 18.9289 119.087 18.6037 119.281 18.3218L119.433 18.1701L130.23 7.32877H120.644C120.19 7.32877 119.822 7.17699 119.519 6.87344C119.216 6.56988 119.065 6.20128 119.065 5.74594C119.065 5.29061 119.216 4.92201 119.519 4.59677C119.822 4.29321 120.19 4.11975 120.644 4.11975H134.146C134.6 4.11975 134.968 4.27153 135.271 4.59677C135.574 4.90032 135.725 5.29061 135.725 5.74594C135.725 6.07118 135.639 6.39642 135.444 6.67829C135.401 6.72166 135.379 6.76502 135.336 6.80839C135.293 6.85175 135.249 6.9168 135.184 6.96017L130.424 11.7303V11.687L124.453 17.6714H134.059C134.557 17.6714 134.946 17.8231 135.249 18.1267Z" fill="#040200"/>
<path d="M147.888 19.2541C147.888 19.6878 147.737 20.0564 147.434 20.36C147.131 20.6635 146.763 20.837 146.33 20.8586H146.287H146.265H146.114C144.989 20.8153 143.929 20.5768 142.955 20.1214C141.981 19.6661 141.116 19.059 140.38 18.3218C139.644 17.5846 139.06 16.6956 138.649 15.6982C138.216 14.7008 138 13.6384 138 12.4892V5.72422C138 5.26888 138.151 4.90028 138.476 4.57504C138.801 4.27148 139.168 4.09802 139.623 4.09802C140.077 4.09802 140.467 4.2498 140.791 4.57504C141.116 4.87859 141.267 5.26888 141.267 5.72422L141.246 12.4892C141.246 13.183 141.375 13.8335 141.635 14.4406C141.895 15.0477 142.241 15.5898 142.695 16.0451C143.15 16.5005 143.647 16.8691 144.253 17.1726C144.859 17.4545 145.486 17.6063 146.157 17.6279H146.287C146.741 17.6279 147.131 17.7797 147.434 18.105C147.737 18.4302 147.888 18.7988 147.888 19.2541Z" fill="#040200"/>
<path d="M166.691 12.5109C166.67 12.9662 166.497 13.3349 166.194 13.6601C165.869 13.9636 165.48 14.1371 165.047 14.1588H153.471C153.536 14.3756 153.644 14.5924 153.752 14.8093C153.839 14.9827 153.925 15.1562 154.012 15.308C154.099 15.4597 154.185 15.6115 154.272 15.785C154.185 15.6549 154.099 15.5031 154.034 15.373C153.969 15.2429 153.904 15.1128 153.817 14.961C154.099 15.4597 154.445 15.9151 154.877 16.3054C155.31 16.6956 155.786 17.0209 156.327 17.2377C156.89 17.4762 157.539 17.628 158.231 17.6497H158.339C158.794 17.6497 159.162 17.8015 159.464 18.105C159.767 18.4086 159.919 18.7772 159.919 19.2325C159.919 19.6878 159.767 20.0564 159.464 20.3817C159.162 20.6852 158.794 20.8587 158.339 20.8587C158.231 20.8587 158.145 20.8587 158.036 20.8587C157.928 20.8587 157.842 20.8587 157.755 20.837C157.02 20.7937 156.327 20.6419 155.635 20.4034C154.942 20.1649 154.293 19.8396 153.709 19.4493C153.103 19.059 152.562 18.6037 152.086 18.0617C151.61 17.5196 151.199 16.9125 150.875 16.262C150.225 14.961 149.944 13.595 150.009 12.1423C150.074 10.6896 150.485 9.34526 151.242 8.13103C151.307 8.02262 151.394 7.91421 151.459 7.8058C151.545 7.69738 151.61 7.58897 151.697 7.48056C152.346 6.61325 153.125 5.89773 154.034 5.35567C154.942 4.8136 155.938 4.445 156.976 4.24985C158.318 4.03303 159.616 4.14144 160.914 4.55341C162.212 4.96538 163.337 5.65922 164.268 6.63494C165.025 7.41551 165.631 8.30449 166.042 9.28021C166.475 10.2776 166.67 11.3184 166.67 12.4025V12.4459V12.5109H166.691ZM155.591 8.15272C155.094 8.47796 154.661 8.88992 154.293 9.36694C153.925 9.84396 153.644 10.3643 153.471 10.9064H163.229C163.143 10.6462 163.013 10.3643 162.861 10.0825C162.537 9.45367 162.083 8.93329 161.52 8.47796C160.957 8.0443 160.33 7.71907 159.638 7.52392C158.967 7.32878 158.274 7.28541 157.582 7.39383C156.868 7.52392 156.197 7.76243 155.591 8.15272Z" fill="#040200"/>
</svg>
