<svg width="19" height="20" viewBox="0 0 19 20" fill="none" xmlns="http://www.w3.org/2000/svg">
<path fill-rule="evenodd" clip-rule="evenodd" d="M15.8789 6.25C15.8789 2.8 13.0779 0 9.62665 0C6.17542 0 3.37442 2.8 3.37442 6.25C3.37442 8.15 4.22473 9.85 5.5627 11C2.77421 12.4625 0.873535 15.3875 0.873535 18.75C0.873535 19.4375 1.43624 20 2.12398 20C2.81172 20 3.37442 19.4375 3.37442 18.75C3.37442 15.3 6.17542 12.5 9.62665 12.5C13.0779 12.5 15.8789 15.3 15.8789 18.75C15.8789 19.4375 16.4416 20 17.1293 20C17.8171 20 18.3798 19.4375 18.3798 18.75C18.3798 15.3875 16.4791 12.4625 13.6906 11C15.0286 9.85 15.8789 8.15 15.8789 6.25ZM9.62665 10C7.55091 10 5.87531 8.325 5.87531 6.25C5.87531 4.175 7.55091 2.5 9.62665 2.5C11.7024 2.5 13.378 4.175 13.378 6.25C13.378 8.325 11.7024 10 9.62665 10Z" fill="#040200"/>
</svg>
